<svg xmlns="http://www.w3.org/2000/svg" xmlns:xlink="http://www.w3.org/1999/xlink" width="500" zoomAndPan="magnify" viewBox="0 0 375 374.999991" height="500" preserveAspectRatio="xMidYMid meet" version="1.0"><defs><clipPath id="id1"><path d="M 0 0 L 368.25 0 L 368.25 368.25 L 0 368.25 Z M 0 0 " clip-rule="nonzero"/></clipPath></defs><g clip-path="url(#id1)"><path fill="rgb(0.389099%, 0.389099%, 0.389099%)" d="M 184.042969 33.203125 C 233.183594 33.203125 238.992188 33.363281 258.4375 34.25 C 276.347656 35.058594 286.113281 38.042969 292.648438 40.625 C 301.199219 43.933594 307.332031 47.96875 313.785156 54.421875 C 320.242188 60.878906 324.195312 67.007812 327.585938 75.5625 C 330.085938 82.015625 333.070312 91.78125 333.957031 109.773438 C 334.847656 129.21875 335.007812 135.027344 335.007812 184.164062 C 335.007812 233.304688 334.847656 239.113281 333.957031 258.558594 C 333.152344 276.46875 330.167969 286.234375 327.585938 292.769531 C 324.277344 301.320312 320.242188 307.453125 313.785156 313.90625 C 307.332031 320.363281 301.199219 324.316406 292.648438 327.707031 C 286.191406 330.207031 276.429688 333.191406 258.4375 334.078125 C 238.992188 334.96875 233.183594 335.128906 184.042969 335.128906 C 134.90625 335.128906 129.097656 334.96875 109.652344 334.078125 C 91.738281 333.273438 81.976562 330.289062 75.441406 327.707031 C 66.886719 324.398438 60.757812 320.363281 54.300781 313.90625 C 47.847656 307.453125 43.894531 301.320312 40.503906 292.769531 C 38.003906 286.3125 35.019531 276.550781 34.128906 258.558594 C 33.242188 239.113281 33.082031 233.304688 33.082031 184.164062 C 33.082031 135.027344 33.242188 129.21875 34.128906 109.773438 C 34.9375 91.859375 37.921875 82.097656 40.503906 75.5625 C 43.8125 67.007812 47.847656 60.878906 54.300781 54.421875 C 60.757812 47.96875 66.886719 44.015625 75.441406 40.625 C 81.894531 38.125 91.660156 35.136719 109.652344 34.25 C 129.097656 33.363281 134.90625 33.203125 184.042969 33.203125 M 184.042969 0.0390625 C 134.019531 0.0390625 127.804688 0.28125 108.117188 1.171875 C 88.511719 2.058594 75.117188 5.203125 63.417969 9.722656 C 51.316406 14.402344 41.070312 20.695312 30.820312 30.941406 C 20.65625 41.191406 14.363281 51.4375 9.683594 63.539062 C 5.164062 75.238281 2.015625 88.632812 1.128906 108.238281 C 0.242188 127.847656 0 134.140625 0 184.085938 C 0 234.109375 0.242188 240.324219 1.128906 260.011719 C 2.015625 279.617188 5.164062 293.011719 9.683594 304.710938 C 14.363281 316.8125 20.65625 327.058594 30.902344 337.308594 C 41.148438 347.554688 51.398438 353.847656 63.5 358.527344 C 75.199219 363.046875 88.59375 366.191406 108.199219 367.078125 C 127.804688 367.96875 134.101562 368.210938 184.125 368.210938 C 234.148438 368.210938 240.363281 367.96875 260.050781 367.078125 C 279.65625 366.191406 293.050781 363.046875 304.75 358.527344 C 316.851562 353.847656 327.101562 347.554688 337.347656 337.308594 C 347.59375 327.058594 353.886719 316.8125 358.566406 304.710938 C 363.085938 293.011719 366.234375 279.617188 367.121094 260.011719 C 368.007812 240.402344 368.25 234.109375 368.25 184.085938 C 368.25 134.058594 368.007812 127.847656 367.121094 108.160156 C 366.234375 88.550781 363.085938 75.160156 358.566406 63.460938 C 353.886719 51.355469 347.59375 41.109375 337.347656 30.863281 C 327.101562 20.613281 316.851562 14.320312 304.75 9.640625 C 293.050781 5.125 279.65625 1.976562 260.050781 1.089844 C 240.363281 0.28125 234.070312 0.0390625 184.042969 0.0390625 " fill-opacity="1" fill-rule="nonzero"/></g><path fill="rgb(0.389099%, 0.389099%, 0.389099%)" d="M 184.042969 89.601562 C 131.839844 89.601562 89.5625 131.882812 89.5625 184.085938 C 89.5625 236.289062 131.921875 278.648438 184.125 278.648438 C 236.328125 278.648438 278.6875 236.367188 278.6875 184.085938 C 278.609375 131.882812 236.246094 89.601562 184.042969 89.601562 M 184.042969 245.488281 C 150.15625 245.488281 122.722656 218.054688 122.722656 184.164062 C 122.722656 150.277344 150.15625 122.84375 184.042969 122.84375 C 217.933594 122.84375 245.367188 150.277344 245.367188 184.164062 C 245.445312 217.972656 217.933594 245.488281 184.042969 245.488281 " fill-opacity="1" fill-rule="nonzero"/><path fill="rgb(0.389099%, 0.389099%, 0.389099%)" d="M 304.425781 85.890625 C 304.425781 98.074219 294.503906 107.996094 282.320312 107.996094 C 270.136719 107.996094 260.210938 98.074219 260.210938 85.890625 C 260.210938 73.707031 270.136719 63.78125 282.320312 63.78125 C 294.503906 63.78125 304.425781 73.625 304.425781 85.890625 " fill-opacity="1" fill-rule="nonzero"/></svg>