<svg xmlns="http://www.w3.org/2000/svg" xmlns:xlink="http://www.w3.org/1999/xlink" width="500" zoomAndPan="magnify" viewBox="0 0 375 374.999991" height="500" preserveAspectRatio="xMidYMid meet" version="1.0"><defs><clipPath id="id1"><path d="M 22 26.785156 L 353.996094 26.785156 L 353.996094 359.785156 L 22 359.785156 Z M 22 26.785156 " clip-rule="nonzero"/></clipPath></defs><g clip-path="url(#id1)"><path fill="rgb(0%, 0%, 0%)" d="M 305.710938 75.238281 C 274.574219 43.933594 233.117188 26.785156 188.996094 26.785156 C 98.085938 26.785156 23.992188 100.878906 23.992188 191.789062 C 23.992188 220.925781 31.652344 249.230469 45.972656 274.203125 L 22.660156 359.785156 L 110.074219 336.808594 C 134.214844 349.960938 161.355469 356.957031 188.996094 356.957031 C 279.902344 356.957031 353.996094 282.863281 353.996094 191.953125 C 353.996094 147.832031 336.847656 106.371094 305.710938 75.238281 Z M 188.996094 328.984375 C 164.351562 328.984375 140.210938 322.324219 119.066406 309.835938 L 114.070312 306.839844 L 62.121094 320.492188 L 75.941406 269.875 L 72.613281 264.714844 C 58.957031 242.902344 51.632812 217.59375 51.632812 191.789062 C 51.632812 116.195312 113.238281 54.589844 188.828125 54.589844 C 225.457031 54.589844 259.925781 68.910156 285.730469 94.882812 C 311.707031 120.859375 325.859375 155.324219 325.859375 191.953125 C 326.191406 267.542969 264.585938 328.984375 188.996094 328.984375 Z M 264.253906 226.417969 C 260.089844 224.421875 239.777344 214.429688 236.113281 212.933594 C 232.285156 211.601562 229.621094 210.933594 226.789062 214.929688 C 223.960938 219.09375 216.132812 228.417969 213.804688 231.082031 C 211.472656 233.910156 208.976562 234.246094 204.8125 232.082031 C 200.648438 230.082031 187.328125 225.585938 171.679688 211.601562 C 159.359375 200.613281 151.199219 187.125 148.703125 182.960938 C 146.371094 178.800781 148.367188 176.636719 150.535156 174.472656 C 152.363281 172.640625 154.695312 169.644531 156.695312 167.3125 C 158.691406 164.980469 159.523438 163.148438 160.855469 160.484375 C 162.1875 157.65625 161.523438 155.324219 160.523438 153.324219 C 159.523438 151.328125 151.199219 131.015625 147.871094 122.691406 C 144.539062 114.699219 141.042969 115.695312 138.546875 115.53125 C 136.046875 115.53125 133.382812 115.53125 130.554688 115.53125 C 127.722656 115.53125 123.394531 116.527344 119.566406 120.691406 C 115.902344 124.855469 105.246094 134.84375 105.246094 155.15625 C 105.246094 175.46875 120.0625 195.117188 122.0625 197.78125 C 124.058594 200.613281 151.199219 242.238281 192.492188 260.050781 C 202.316406 264.382812 209.972656 266.878906 215.96875 268.710938 C 225.792969 271.875 234.78125 271.375 241.941406 270.375 C 249.933594 269.210938 266.417969 260.386719 269.746094 250.726562 C 273.242188 241.070312 273.242188 232.914062 272.078125 231.082031 C 270.914062 229.25 268.414062 228.417969 264.253906 226.417969 Z M 264.253906 226.417969 " fill-opacity="1" fill-rule="nonzero"/></g></svg>